<mxfile host="app.diagrams.net" agent="Mozilla/5.0 (Windows NT 10.0; Win64; x64) AppleWebKit/537.36 (KHTML, like Gecko) Chrome/135.0.0.0 Safari/537.36" version="26.2.14">
  <diagram name="Page-1" id="UZRUSZkKVwmetYZSibEU">
    <mxGraphModel dx="872" dy="431" grid="1" gridSize="10" guides="1" tooltips="1" connect="1" arrows="1" fold="1" page="1" pageScale="1" pageWidth="1169" pageHeight="1654" math="0" shadow="0">
      <root>
        <mxCell id="0" />
        <mxCell id="1" parent="0" />
        <mxCell id="pOD2ptbRk6eSLJYCfyN0-11" style="edgeStyle=orthogonalEdgeStyle;rounded=0;orthogonalLoop=1;jettySize=auto;html=1;exitX=0.75;exitY=0;exitDx=0;exitDy=0;entryX=0.25;entryY=1;entryDx=0;entryDy=0;" edge="1" parent="1" source="pOD2ptbRk6eSLJYCfyN0-1" target="pOD2ptbRk6eSLJYCfyN0-2">
          <mxGeometry relative="1" as="geometry" />
        </mxCell>
        <mxCell id="pOD2ptbRk6eSLJYCfyN0-1" value="a&amp;nbsp;BookingDatabase" style="rounded=0;whiteSpace=wrap;html=1;" vertex="1" parent="1">
          <mxGeometry x="440" y="310" width="120" height="60" as="geometry" />
        </mxCell>
        <mxCell id="pOD2ptbRk6eSLJYCfyN0-9" style="edgeStyle=orthogonalEdgeStyle;rounded=0;orthogonalLoop=1;jettySize=auto;html=1;exitX=0.5;exitY=1;exitDx=0;exitDy=0;entryX=1;entryY=0.5;entryDx=0;entryDy=0;" edge="1" parent="1" source="pOD2ptbRk6eSLJYCfyN0-2" target="pOD2ptbRk6eSLJYCfyN0-1">
          <mxGeometry relative="1" as="geometry" />
        </mxCell>
        <mxCell id="pOD2ptbRk6eSLJYCfyN0-13" style="edgeStyle=orthogonalEdgeStyle;rounded=0;orthogonalLoop=1;jettySize=auto;html=1;exitX=0;exitY=0.75;exitDx=0;exitDy=0;entryX=1;entryY=0.75;entryDx=0;entryDy=0;" edge="1" parent="1" source="pOD2ptbRk6eSLJYCfyN0-2" target="pOD2ptbRk6eSLJYCfyN0-3">
          <mxGeometry relative="1" as="geometry" />
        </mxCell>
        <mxCell id="pOD2ptbRk6eSLJYCfyN0-17" style="edgeStyle=orthogonalEdgeStyle;rounded=0;orthogonalLoop=1;jettySize=auto;html=1;exitX=0.75;exitY=1;exitDx=0;exitDy=0;entryX=0.75;entryY=1;entryDx=0;entryDy=0;" edge="1" parent="1" source="pOD2ptbRk6eSLJYCfyN0-2" target="pOD2ptbRk6eSLJYCfyN0-1">
          <mxGeometry relative="1" as="geometry">
            <Array as="points">
              <mxPoint x="780" y="170" />
              <mxPoint x="780" y="390" />
              <mxPoint x="530" y="390" />
            </Array>
          </mxGeometry>
        </mxCell>
        <mxCell id="pOD2ptbRk6eSLJYCfyN0-19" style="edgeStyle=orthogonalEdgeStyle;rounded=0;orthogonalLoop=1;jettySize=auto;html=1;exitX=0;exitY=1;exitDx=0;exitDy=0;entryX=0.75;entryY=1;entryDx=0;entryDy=0;" edge="1" parent="1" source="pOD2ptbRk6eSLJYCfyN0-2" target="pOD2ptbRk6eSLJYCfyN0-3">
          <mxGeometry relative="1" as="geometry" />
        </mxCell>
        <mxCell id="pOD2ptbRk6eSLJYCfyN0-2" value="a System" style="rounded=0;whiteSpace=wrap;html=1;" vertex="1" parent="1">
          <mxGeometry x="610" y="110" width="120" height="60" as="geometry" />
        </mxCell>
        <mxCell id="pOD2ptbRk6eSLJYCfyN0-16" style="edgeStyle=orthogonalEdgeStyle;rounded=0;orthogonalLoop=1;jettySize=auto;html=1;exitX=1;exitY=0;exitDx=0;exitDy=0;entryX=0.5;entryY=0;entryDx=0;entryDy=0;" edge="1" parent="1" source="pOD2ptbRk6eSLJYCfyN0-3" target="pOD2ptbRk6eSLJYCfyN0-2">
          <mxGeometry relative="1" as="geometry">
            <Array as="points">
              <mxPoint x="360" y="70" />
              <mxPoint x="670" y="70" />
            </Array>
          </mxGeometry>
        </mxCell>
        <mxCell id="pOD2ptbRk6eSLJYCfyN0-3" value="a User" style="rounded=0;whiteSpace=wrap;html=1;" vertex="1" parent="1">
          <mxGeometry x="240" y="110" width="120" height="60" as="geometry" />
        </mxCell>
        <mxCell id="pOD2ptbRk6eSLJYCfyN0-6" value="" style="edgeStyle=orthogonalEdgeStyle;rounded=0;orthogonalLoop=1;jettySize=auto;html=1;exitX=1;exitY=0.25;exitDx=0;exitDy=0;entryX=0;entryY=0.25;entryDx=0;entryDy=0;" edge="1" parent="1" source="pOD2ptbRk6eSLJYCfyN0-3" target="pOD2ptbRk6eSLJYCfyN0-2">
          <mxGeometry relative="1" as="geometry">
            <mxPoint x="360" y="125" as="sourcePoint" />
            <mxPoint x="430" y="135" as="targetPoint" />
          </mxGeometry>
        </mxCell>
        <mxCell id="pOD2ptbRk6eSLJYCfyN0-8" value="1:createBooking()" style="text;html=1;align=center;verticalAlign=middle;whiteSpace=wrap;rounded=0;" vertex="1" parent="1">
          <mxGeometry x="450" y="90" width="60" height="30" as="geometry" />
        </mxCell>
        <mxCell id="pOD2ptbRk6eSLJYCfyN0-10" value="2:saveBooking()" style="text;html=1;align=center;verticalAlign=middle;whiteSpace=wrap;rounded=0;" vertex="1" parent="1">
          <mxGeometry x="690" y="250" width="60" height="30" as="geometry" />
        </mxCell>
        <mxCell id="pOD2ptbRk6eSLJYCfyN0-12" value="3:bookingSaved" style="text;html=1;align=center;verticalAlign=middle;whiteSpace=wrap;rounded=0;" vertex="1" parent="1">
          <mxGeometry x="550" y="240" width="60" height="30" as="geometry" />
        </mxCell>
        <mxCell id="pOD2ptbRk6eSLJYCfyN0-14" value="4:&lt;span style=&quot;background-color: transparent;&quot;&gt;showBookingDetails()&lt;/span&gt;&lt;div&gt;&lt;span style=&quot;background-color: transparent; color: light-dark(rgb(0, 0, 0), rgb(255, 255, 255));&quot;&gt;&lt;br&gt;&lt;/span&gt;&lt;/div&gt;" style="text;html=1;align=center;verticalAlign=middle;whiteSpace=wrap;rounded=0;" vertex="1" parent="1">
          <mxGeometry x="450" y="160" width="60" height="30" as="geometry" />
        </mxCell>
        <mxCell id="pOD2ptbRk6eSLJYCfyN0-15" value="5:deleteBooking()" style="text;html=1;align=center;verticalAlign=middle;whiteSpace=wrap;rounded=0;" vertex="1" parent="1">
          <mxGeometry x="470" y="30" width="60" height="30" as="geometry" />
        </mxCell>
        <mxCell id="pOD2ptbRk6eSLJYCfyN0-18" value="6:removeBooking()" style="text;html=1;align=center;verticalAlign=middle;whiteSpace=wrap;rounded=0;" vertex="1" parent="1">
          <mxGeometry x="820" y="250" width="60" height="30" as="geometry" />
        </mxCell>
        <mxCell id="pOD2ptbRk6eSLJYCfyN0-20" value="7:showDeletionConfirmation()" style="text;html=1;align=center;verticalAlign=middle;whiteSpace=wrap;rounded=0;" vertex="1" parent="1">
          <mxGeometry x="460" y="190" width="60" height="30" as="geometry" />
        </mxCell>
      </root>
    </mxGraphModel>
  </diagram>
</mxfile>
